<?xml version="1.0" encoding="utf-8"?>
<!-- Generator: Adobe Illustrator 23.0.1, SVG Export Plug-In . SVG Version: 6.00 Build 0)  -->
<svg version="1.1" id="Layer_1" xmlns="http://www.w3.org/2000/svg" xmlns:xlink="http://www.w3.org/1999/xlink" x="0px" y="0px"
	 viewBox="0 0 150 150" style="enable-background:new 0 0 150 150;" xml:space="preserve">
<style type="text/css">
	.st0{opacity:0.74;fill:#BFBFBF;}
	.st1{fill:#666666;}
	.st2{fill:#F9DF6E;stroke:#605E43;stroke-width:0.25;stroke-miterlimit:10;}
	.st3{fill:#C1C1C1;stroke:#666666;stroke-width:0.25;stroke-miterlimit:10;}
	.st4{fill:#E62222;}
	.st5{fill:#212324;}
</style>
<path class="st0" d="M99.3,43.6H49.4c-6.5,6.9-10.5,16.4-10.5,27c0,10.1,3.7,19.2,9.6,26h51.8c6-6.8,9.6-15.9,9.6-26
	C109.9,60,105.8,50.5,99.3,43.6z"/>
<circle class="st1" cx="51.5" cy="70.5" r="3.5"/>
<circle class="st1" cx="74.4" cy="87.5" r="3.5"/>
<circle class="st1" cx="97.5" cy="70.5" r="3.5"/>
<g>
	<path class="st2" d="M86.4,72.5v-4.4h-4.3c-0.2-0.6-0.4-1.2-0.7-1.7l3-3l-3.1-3.1l-3,3c-0.5-0.3-1.1-0.5-1.7-0.7v-4.3h-4.4v4.3
		c-0.6,0.2-1.2,0.4-1.7,0.7l-3-3l-3.1,3.1l3,3c-0.3,0.5-0.5,1.1-0.7,1.7h-4.3v4.4h4.3c0.2,0.6,0.4,1.2,0.7,1.7l-3,3l3.1,3.1l3-3
		c0.5,0.3,1.1,0.5,1.7,0.7v4.3h4.4V78c0.6-0.2,1.2-0.4,1.7-0.7l3,3l3.1-3.1l-3-3c0.3-0.5,0.5-1.1,0.7-1.7H86.4z"/>
	<circle class="st3" cx="74.4" cy="70.3" r="5.1"/>
</g>
<rect id="_x2B_" x="64" y="38.5" class="st4" width="5" height="5"/>
<rect id="_x2D_" x="79" y="38.5" class="st5" width="5" height="5"/>
</svg>
