<svg xmlns="http://www.w3.org/2000/svg" xmlns:xlink="http://www.w3.org/1999/xlink" version="1.1" id="Layer_1" x="0px" y="0px" viewBox="0 0 57 74.6" style="enable-background:new 0 0 57 74.6;" xml:space="preserve">
<style type="text/css">
	.st0{fill:#1E5F8B;}
	.st1{fill:#FFFFFF;}
	.st2{fill:#D4A574;}
	.st3{opacity:0.5;fill:#888888;enable-background:new    ;}
	.st4{fill:#F0E68C;}
	.st5{fill:#333333;}
	.st6{font-family:'ArialMT';}
	.st7{font-size:1.779px;}
	.st8{font-size:3.5581px;}
</style>
<path class="st0" d="M3.1,0.5h51.2c1.4,0,2.5,1.3,2.5,2.9V71c0,1.6-1.1,2.9-2.5,2.9H3.1c-1.4,0-2.5-1.3-2.5-2.9V3.4  C0.6,1.8,1.7,0.5,3.1,0.5z"/>
<circle class="st1" cx="6" cy="5.3" r="2.2"/>
<circle class="st1" cx="51.2" cy="5.3" r="2.2"/>
<circle class="st1" cx="6" cy="69" r="2.2"/>
<circle class="st1" cx="51.2" cy="69" r="2.2"/>
<path class="st2" d="M8.8,14.7h38.4c1.2,0,2.1,1.2,2.1,2.8v36.6c0,1.6-0.9,2.8-2.1,2.8H8.8c-1.2,0-2.1-1.2-2.1-2.8V17.5  C6.6,16,7.6,14.7,8.8,14.7z"/>
<path class="st1" d="M14.4,21.4h27c0.5,0,1,0.7,1,1.5v26c0,0.8-0.4,1.5-1,1.5h-27c-0.5,0-1-0.7-1-1.5v-26  C13.5,22,13.9,21.4,14.4,21.4z"/>
<circle class="st3" cx="27.9" cy="35.9" r="2.7"/>
<g id="pin-header">
	<rect x="20.8" y="62.6" class="st4" width="2.7" height="11.1"/>
	<rect x="25.3" y="62.6" class="st4" width="2.7" height="11.1"/>
	<rect x="29.7" y="62.6" class="st4" width="2.7" height="11.1"/>
	<rect x="34.2" y="62.6" class="st4" width="2.7" height="11.1"/>
	<circle class="st5" cx="22.1" cy="68" r="0.7" data-pin="VCC"/>
	<circle class="st5" cx="26.6" cy="68" r="0.7" data-pin="RX"/>
	<circle class="st5" cx="31" cy="68" r="0.7" data-pin="TX"/>
	<circle class="st5" cx="35.5" cy="68" r="0.7" data-pin="GND"/>
</g>
<text transform="matrix(1 0 0 1 20.2644 60.412)" class="st1 st6 st7">VCC</text>
<text transform="matrix(1 0 0 1 25.3533 60.412)" class="st1 st6 st7">RX</text>
<text transform="matrix(1 0 0 1 29.9012 60.412)" class="st1 st6 st7">TX</text>
<text transform="matrix(1 0 0 1 33.5076 60.412)" class="st1 st6 st7">GND</text>
<text transform="matrix(2.262492e-05 1 -1 2.262492e-05 51.8216 19.0501)" class="st1 st6 st8">GY-NEO6MV2</text>
<circle class="st1" cx="25.3" cy="5.9" r="3.6"/>
</svg>